# xmcd CD database file generated by freedbAccess_ocx
#
# Track frame offsets:
#       150
#       22084
#       39710
#       54996
#       83093
#       98991
#       110788
#       126014
#       152238
#       166504
#       181247
#       203500
#       215522
#       226529
#       242034
#       263613
#       283448
#       316215
#
# Disc length: 4496 seconds
#
# Revision: 0
# Processed by: cddbd v1.5.1PL0 Copyright (c) Steve Scherf et al.
# Submitted via: CDnGo 2.00
#
DISCID=ef118e12
DTITLE=Fred J Eaglesmith - The Official Bootleg Series Vol 2 Disc 1
DYEAR=2004
DGENRE=Country
TTITLE0=Cumberland County
TTITLE1=Alcohol and Pills
TTITLE2=Freight Train
TTITLE3=105
TTITLE4=Summerlea
TTITLE5=Crazier
TTITLE6=Georgia Overdrive
TTITLE7=Drive in Movie
TTITLE8=Git Off My Land intro
TTITLE9=Time to Gat a Gun
TTITLE10=Spookin' The Horses
TTITLE11=White Trash
TTITLE12=He's a Good Dog
TTITLE13=Carmalita intro
TTITLE14=Carmelita
TTITLE15=Harold wilson
TTITLE16=Steel Guitar
TTITLE17=Ship
EXTD=
EXTT0=
EXTT1=
EXTT2=
EXTT3=
EXTT4=
EXTT5=
EXTT6=
EXTT7=
EXTT8=
EXTT9=
EXTT10=
EXTT11=
EXTT12=
EXTT13=
EXTT14=
EXTT15=
EXTT16=
EXTT17=
PLAYORDER=
